<svg width="37" height="36" viewBox="0 0 37 36" fill="none" xmlns="http://www.w3.org/2000/svg">
<path opacity="0.2" d="M30 4.5V27H10.875C9.97989 27 9.12145 27.3556 8.48851 27.9885C7.85558 28.6214 7.5 29.4799 7.5 30.375V7.875C7.5 6.97989 7.85558 6.12145 8.48851 5.48851C9.12145 4.85558 9.97989 4.5 10.875 4.5H30Z" fill="#C05946"/>
<path d="M30 3.375H10.875C9.68153 3.375 8.53693 3.84911 7.69302 4.69302C6.84911 5.53693 6.375 6.68153 6.375 7.875V31.5C6.375 31.7984 6.49353 32.0845 6.70451 32.2955C6.91548 32.5065 7.20163 32.625 7.5 32.625H27.75C28.0484 32.625 28.3345 32.5065 28.5455 32.2955C28.7565 32.0845 28.875 31.7984 28.875 31.5C28.875 31.2016 28.7565 30.9155 28.5455 30.7045C28.3345 30.4935 28.0484 30.375 27.75 30.375H8.625C8.625 29.7783 8.86205 29.206 9.28401 28.784C9.70597 28.3621 10.2783 28.125 10.875 28.125H30C30.2984 28.125 30.5845 28.0065 30.7955 27.7955C31.0065 27.5845 31.125 27.2984 31.125 27V4.5C31.125 4.20163 31.0065 3.91548 30.7955 3.7045C30.5845 3.49353 30.2984 3.375 30 3.375ZM28.875 25.875H10.875C10.0849 25.8739 9.30859 26.0821 8.625 26.4783V7.875C8.625 7.27826 8.86205 6.70597 9.28401 6.28401C9.70597 5.86205 10.2783 5.625 10.875 5.625H28.875V25.875Z" fill="#C05946"/>
<path d="M12.1285 15.6094C12.1285 16.5547 12.7541 17.3281 13.5226 17.3281C13.6908 17.3246 13.8565 17.2873 14.0096 17.2184C14.1628 17.1496 14.3 17.0506 14.413 16.9277C14.4754 16.859 14.5512 16.8035 14.6358 16.7643C14.7204 16.7251 14.8121 16.7031 14.9055 16.6996C14.9989 16.6961 15.092 16.7112 15.1794 16.7439C15.2668 16.7766 15.3466 16.8263 15.4141 16.8901C15.4816 16.9538 15.5354 17.0303 15.5723 17.115C15.6092 17.1997 15.6285 17.2908 15.629 17.383C15.6295 17.4752 15.6112 17.5665 15.5752 17.6516C15.5392 17.7366 15.4862 17.8137 15.4194 17.8781C15.177 18.136 14.8836 18.3421 14.5574 18.484C14.2312 18.6259 13.8791 18.7005 13.5226 18.7031C11.9847 18.7031 10.7344 17.3152 10.7344 15.6094C10.7344 13.9035 11.9847 12.5156 13.5226 12.5156C13.8791 12.5183 14.2312 12.5928 14.5574 12.7347C14.8836 12.8766 15.177 13.0828 15.4194 13.3406C15.4862 13.4051 15.5392 13.4821 15.5752 13.5672C15.6112 13.6522 15.6295 13.7436 15.629 13.8358C15.6285 13.9279 15.6092 14.0191 15.5723 14.1037C15.5354 14.1884 15.4816 14.2649 15.4141 14.3287C15.3466 14.3924 15.2668 14.4421 15.1794 14.4748C15.092 14.5076 14.9989 14.5226 14.9055 14.5191C14.8121 14.5156 14.7204 14.4936 14.6358 14.4544C14.5512 14.4153 14.4754 14.3597 14.413 14.2911C14.2999 14.1683 14.1626 14.0695 14.0095 14.0006C13.8564 13.9318 13.6908 13.8943 13.5226 13.8906C12.7541 13.8906 12.1285 14.6641 12.1285 15.6094ZM19.0641 14.8626C18.7155 14.7629 18.3548 14.6606 18.1535 14.5326C18.0438 14.463 18.0464 14.4466 18.056 14.3693C18.0573 14.3068 18.0738 14.2455 18.1041 14.1906C18.1344 14.1358 18.1777 14.0889 18.2302 14.0539C18.631 13.7858 19.5677 13.9052 19.958 14.0058C20.1369 14.0522 20.3271 14.0266 20.4868 13.9346C20.6465 13.8427 20.7627 13.6919 20.8097 13.5155C20.8567 13.3391 20.8308 13.1515 20.7376 12.9939C20.6444 12.8364 20.4915 12.7219 20.3126 12.6755C20.1279 12.6282 18.4829 12.2269 17.4521 12.9127C17.2339 13.0569 17.0504 13.2468 16.9149 13.4689C16.7794 13.6909 16.6951 13.9396 16.668 14.1974C16.4937 15.5621 17.8564 15.9514 18.672 16.1834C19.7236 16.4834 19.816 16.6063 19.7855 16.8357C19.7585 17.0428 19.6757 17.1227 19.599 17.1734C19.1982 17.4364 18.2773 17.3075 17.8956 17.2044C17.7184 17.158 17.5299 17.1824 17.3707 17.2722C17.2116 17.3619 17.0948 17.5099 17.0455 17.6841C16.9962 17.8583 17.0185 18.0446 17.1075 18.2026C17.1965 18.3607 17.345 18.4779 17.521 18.5287C17.9528 18.6403 18.3972 18.6981 18.8436 18.7005C19.3516 18.7005 19.9153 18.6146 20.3675 18.3173C20.5907 18.171 20.7783 17.9777 20.9167 17.7514C21.0552 17.5251 21.1411 17.2714 21.1683 17.0084C21.3643 15.5234 19.9249 15.1084 19.0641 14.8626ZM24.6404 14.8626C24.2919 14.7629 23.9312 14.6606 23.7299 14.5326C23.621 14.463 23.6227 14.4466 23.6323 14.3693C23.6336 14.3068 23.6501 14.2455 23.6805 14.1906C23.7108 14.1358 23.754 14.0889 23.8066 14.0539C24.2074 13.7858 25.1432 13.9052 25.5335 14.0058C25.7124 14.0522 25.9026 14.0266 26.0623 13.9346C26.222 13.8427 26.3382 13.6919 26.3852 13.5155C26.4322 13.3391 26.4063 13.1515 26.3131 12.9939C26.2198 12.8364 26.067 12.7219 25.8881 12.6755C25.7043 12.6282 24.0584 12.2269 23.0276 12.9127C22.8103 13.0575 22.6278 13.2476 22.4931 13.4696C22.3583 13.6916 22.2746 13.9401 22.2478 14.1974C22.0735 15.5621 23.4371 15.9514 24.2518 16.1834C25.3026 16.4834 25.395 16.6063 25.3653 16.8357C25.3383 17.0428 25.2556 17.1227 25.178 17.1734C24.7772 17.4364 23.8571 17.3075 23.4755 17.2044C23.2971 17.1554 23.1063 17.1783 22.945 17.268C22.7837 17.3578 22.6652 17.5071 22.6155 17.683C22.5658 17.859 22.589 18.0472 22.68 18.2063C22.7711 18.3654 22.9224 18.4822 23.1008 18.5313C23.533 18.6429 23.9776 18.7006 24.4243 18.7031C24.9314 18.7031 25.496 18.6172 25.9482 18.3198C26.1713 18.1735 26.3588 17.9802 26.4971 17.7539C26.6354 17.5276 26.7211 17.2739 26.7481 17.011C26.9407 15.5234 25.5013 15.1084 24.6395 14.8626H24.6404Z" fill="#C05946"/>
</svg>
