<svg width="40" height="41" viewBox="0 0 40 41" fill="none" xmlns="http://www.w3.org/2000/svg">
<path opacity="0.2" d="M32.5 14.435H23.75V5.685L32.5 14.435Z" fill="#faedcb"/>
<path d="M7.5 28.81C7.5 30.5287 8.62188 31.935 10 31.935C10.3017 31.9286 10.5989 31.8607 10.8735 31.7355C11.1481 31.6103 11.3942 31.4305 11.5969 31.2069C11.7088 31.0821 11.8446 30.9811 11.9963 30.9099C12.148 30.8387 12.3125 30.7987 12.48 30.7923C12.6474 30.7859 12.8145 30.8133 12.9712 30.8728C13.1279 30.9323 13.271 31.0227 13.392 31.1386C13.5131 31.2545 13.6096 31.3936 13.6758 31.5475C13.742 31.7015 13.7766 31.8672 13.7775 32.0348C13.7784 32.2024 13.7455 32.3684 13.681 32.5231C13.6164 32.6777 13.5214 32.8178 13.4016 32.935C12.9668 33.4038 12.4408 33.7787 11.8558 34.0366C11.2709 34.2946 10.6393 34.4302 10 34.435C7.24219 34.435 5 31.9116 5 28.81C5 25.7084 7.24219 23.185 10 23.185C10.6393 23.1898 11.2709 23.3254 11.8558 23.5834C12.4408 23.8413 12.9668 24.2162 13.4016 24.685C13.5214 24.8022 13.6164 24.9423 13.681 25.0969C13.7455 25.2516 13.7784 25.4176 13.7775 25.5852C13.7766 25.7528 13.742 25.9185 13.6758 26.0725C13.6096 26.2264 13.5131 26.3655 13.392 26.4814C13.271 26.5973 13.1279 26.6877 12.9712 26.7472C12.8145 26.8067 12.6474 26.8341 12.48 26.8277C12.3125 26.8213 12.148 26.7813 11.9963 26.7101C11.8446 26.6389 11.7088 26.5379 11.5969 26.4131C11.394 26.1898 11.1478 26.0101 10.8733 25.885C10.5987 25.7598 10.3016 25.6918 10 25.685C8.62188 25.685 7.5 27.0912 7.5 28.81ZM19.9375 27.4522C19.3125 27.2709 18.6656 27.085 18.3047 26.8522C18.1078 26.7256 18.1125 26.6959 18.1297 26.5553C18.132 26.4417 18.1616 26.3303 18.216 26.2305C18.2704 26.1307 18.348 26.0454 18.4422 25.9819C19.1609 25.4944 20.8406 25.7116 21.5406 25.8944C21.8614 25.9787 22.2025 25.9322 22.4889 25.765C22.7753 25.5978 22.9836 25.3237 23.068 25.003C23.1523 24.6822 23.1058 24.3411 22.9386 24.0547C22.7714 23.7682 22.4973 23.56 22.1766 23.4756C21.8453 23.3897 18.8953 22.66 17.0469 23.9069C16.6554 24.1692 16.3265 24.5145 16.0835 24.9182C15.8405 25.3219 15.6893 25.7741 15.6406 26.2428C15.3281 28.7241 17.7719 29.4319 19.2344 29.8537C21.1203 30.3991 21.2859 30.6225 21.2313 31.0397C21.1828 31.4162 21.0344 31.5616 20.8969 31.6537C20.1781 32.1319 18.5266 31.8975 17.8422 31.71C17.5244 31.6257 17.1863 31.67 16.9009 31.8332C16.6156 31.9965 16.406 32.2656 16.3176 32.5822C16.2293 32.8989 16.2692 33.2376 16.4288 33.525C16.5884 33.8124 16.8548 34.0254 17.1703 34.1178C17.9447 34.3208 18.7416 34.4258 19.5422 34.4303C20.4531 34.4303 21.4641 34.2741 22.275 33.7334C22.6753 33.4675 23.0116 33.1161 23.2599 32.7047C23.5082 32.2932 23.6622 31.8318 23.7109 31.3537C24.0625 28.6537 21.4812 27.8991 19.9375 27.4522ZM29.9375 27.4522C29.3125 27.2709 28.6656 27.085 28.3047 26.8522C28.1094 26.7256 28.1125 26.6959 28.1297 26.5553C28.132 26.4417 28.1616 26.3303 28.216 26.2305C28.2704 26.1307 28.348 26.0454 28.4422 25.9819C29.1609 25.4944 30.8391 25.7116 31.5391 25.8944C31.8598 25.9787 32.2009 25.9322 32.4873 25.765C32.7738 25.5978 32.9821 25.3237 33.0664 25.003C33.1507 24.6822 33.1042 24.3411 32.937 24.0547C32.7699 23.7682 32.4957 23.56 32.175 23.4756C31.8453 23.3897 28.8937 22.66 27.0453 23.9069C26.6555 24.1702 26.3283 24.5159 26.0867 24.9195C25.8451 25.3232 25.6949 25.7749 25.6469 26.2428C25.3344 28.7241 27.7797 29.4319 29.2406 29.8537C31.125 30.3991 31.2906 30.6225 31.2375 31.0397C31.1891 31.4162 31.0406 31.5616 30.9016 31.6537C30.1828 32.1319 28.5328 31.8975 27.8484 31.71C27.5285 31.6209 27.1863 31.6625 26.8971 31.8258C26.6079 31.989 26.3953 32.2604 26.3063 32.5803C26.2172 32.9002 26.2588 33.2424 26.422 33.5317C26.5852 33.8209 26.8566 34.0334 27.1766 34.1225C27.9515 34.3254 28.7489 34.4304 29.55 34.435C30.4594 34.435 31.4719 34.2787 32.2828 33.7381C32.6829 33.4721 33.019 33.1207 33.267 32.7092C33.515 32.2977 33.6688 31.8364 33.7172 31.3584C34.0625 28.6537 31.4812 27.8991 29.9359 27.4522H29.9375ZM6.25 18.185V6.935C6.25 6.27196 6.51339 5.63607 6.98223 5.16723C7.45107 4.69839 8.08696 4.435 8.75 4.435H23.75C23.9142 4.43487 24.0768 4.46709 24.2286 4.52983C24.3803 4.59256 24.5182 4.68458 24.6344 4.80062L33.3844 13.5506C33.5004 13.6668 33.5924 13.8047 33.6552 13.9564C33.7179 14.1082 33.7501 14.2708 33.75 14.435V18.185C33.75 18.5165 33.6183 18.8345 33.3839 19.0689C33.1495 19.3033 32.8315 19.435 32.5 19.435C32.1685 19.435 31.8505 19.3033 31.6161 19.0689C31.3817 18.8345 31.25 18.5165 31.25 18.185V15.685H23.75C23.4185 15.685 23.1005 15.5533 22.8661 15.3189C22.6317 15.0845 22.5 14.7665 22.5 14.435V6.935H8.75V18.185C8.75 18.5165 8.6183 18.8345 8.38388 19.0689C8.14946 19.3033 7.83152 19.435 7.5 19.435C7.16848 19.435 6.85054 19.3033 6.61612 19.0689C6.3817 18.8345 6.25 18.5165 6.25 18.185ZM25 13.185H29.4812L25 8.70219V13.185Z"/>
<path opacity="0.2" d="M20.459 12.1355L14.399 18.1955C14.3639 18.2306 14.3223 18.2585 14.2765 18.2775C14.2306 18.2965 14.1815 18.3063 14.1319 18.3063C14.0823 18.3063 14.0331 18.2965 13.9873 18.2775C13.9415 18.2585 13.8998 18.2306 13.8647 18.1955L10.4855 14.7974C10.4147 14.7266 10.375 14.6306 10.375 14.5305C10.375 14.4304 10.4147 14.3344 10.4855 14.2636L11.6182 13.1309C11.6533 13.0958 11.6949 13.0679 11.7408 13.0489C11.7866 13.0299 11.8357 13.0202 11.8853 13.0202C11.935 13.0202 11.9841 13.0299 12.0299 13.0489C12.0758 13.0679 12.1174 13.0958 12.1525 13.1309L14.1508 15.0697L18.792 10.4874C18.8271 10.4523 18.8687 10.4245 18.9146 10.4055C18.9604 10.3865 19.0095 10.3767 19.0592 10.3767C19.1088 10.3767 19.1579 10.3865 19.2037 10.4055C19.2496 10.4245 19.2912 10.4523 19.3263 10.4874L20.459 11.6013C20.4941 11.6363 20.5219 11.678 20.5409 11.7238C20.5599 11.7697 20.5697 11.8188 20.5697 11.8684C20.5697 11.918 20.5599 11.9672 20.5409 12.013C20.5219 12.0588 20.4941 12.1005 20.459 12.1355Z"/>
<path d="M20.7243 11.3322L19.5916 10.2203C19.45 10.0792 19.2583 10 19.0585 10C18.8586 10 18.6669 10.0792 18.5254 10.2203L14.1508 14.5411L12.4192 12.8609C12.2773 12.7203 12.0856 12.6416 11.8858 12.642C11.6861 12.6425 11.4947 12.722 11.3535 12.8633L10.2208 13.996C10.0794 14.1376 10 14.3295 10 14.5295C10 14.7296 10.0794 14.9215 10.2208 15.0631L13.601 18.4612C13.6711 18.5314 13.7543 18.587 13.846 18.625C13.9376 18.6629 14.0358 18.6824 14.135 18.6824C14.2342 18.6824 14.3324 18.6629 14.424 18.625C14.5156 18.587 14.5989 18.5314 14.669 18.4612L20.7266 12.4022C20.7969 12.3319 20.8526 12.2484 20.8905 12.1565C20.9284 12.0646 20.9478 11.9661 20.9476 11.8667C20.9474 11.7673 20.9276 11.6689 20.8892 11.5772C20.8509 11.4855 20.7948 11.4022 20.7243 11.3322ZM14.1329 17.9284L10.7527 14.5302L11.8854 13.3975C11.8867 13.3987 11.888 13.3999 11.8891 13.4013L13.8879 15.3406C13.9585 15.4096 14.0533 15.4483 14.152 15.4483C14.2507 15.4483 14.3455 15.4096 14.416 15.3406L19.062 10.7546L20.1919 11.8684L14.1329 17.9284Z"/>
</svg>
