<svg width="40" height="41" viewBox="0 0 40 41" fill="#faedcb" xmlns="http://www.w3.org/2000/svg">
<path opacity="0.2" d="M32.5 14.435H23.75V5.685L32.5 14.435Z"/>
<path d="M33.75 19.435V14.435C33.7501 14.2708 33.7179 14.1082 33.6552 13.9564C33.5924 13.8047 33.5004 13.6668 33.3844 13.5506L24.6344 4.80062C24.5182 4.68458 24.3803 4.59256 24.2286 4.52983C24.0768 4.46709 23.9142 4.43487 23.75 4.435H8.75C8.08696 4.435 7.45107 4.69839 6.98223 5.16723C6.51339 5.63607 6.25 6.27196 6.25 6.935V19.435C6.25 19.7665 6.3817 20.0845 6.61612 20.3189C6.85054 20.5533 7.16848 20.685 7.5 20.685C7.83152 20.685 8.14946 20.5533 8.38388 20.3189C8.6183 20.0845 8.75 19.7665 8.75 19.435V6.935H22.5V14.435C22.5 14.7665 22.6317 15.0845 22.8661 15.3189C23.1005 15.5533 23.4185 15.685 23.75 15.685H31.25V19.435C31.25 19.7665 31.3817 20.0845 31.6161 20.3189C31.8505 20.5533 32.1685 20.685 32.5 20.685C32.8315 20.685 33.1495 20.5533 33.3839 20.3189C33.6183 20.0845 33.75 19.7665 33.75 19.435ZM25 8.70219L29.4828 13.185H25V8.70219ZM10.625 25.685V33.185C10.625 33.5165 10.4933 33.8345 10.2589 34.0689C10.0245 34.3033 9.70652 34.435 9.375 34.435C9.04348 34.435 8.72554 34.3033 8.49112 34.0689C8.2567 33.8345 8.125 33.5165 8.125 33.185V30.685H5V33.185C5 33.5165 4.8683 33.8345 4.63388 34.0689C4.39946 34.3033 4.08152 34.435 3.75 34.435C3.41848 34.435 3.10054 34.3033 2.86612 34.0689C2.6317 33.8345 2.5 33.5165 2.5 33.185V25.685C2.5 25.3535 2.6317 25.0355 2.86612 24.8011C3.10054 24.5667 3.41848 24.435 3.75 24.435C4.08152 24.435 4.39946 24.5667 4.63388 24.8011C4.8683 25.0355 5 25.3535 5 25.685V28.185H8.125V25.685C8.125 25.3535 8.2567 25.0355 8.49112 24.8011C8.72554 24.5667 9.04348 24.435 9.375 24.435C9.70652 24.435 10.0245 24.5667 10.2589 24.8011C10.4933 25.0355 10.625 25.3535 10.625 25.685ZM19.375 25.685C19.375 26.0165 19.2433 26.3345 19.0089 26.5689C18.7745 26.8033 18.4565 26.935 18.125 26.935H16.875V33.185C16.875 33.5165 16.7433 33.8345 16.5089 34.0689C16.2745 34.3033 15.9565 34.435 15.625 34.435C15.2935 34.435 14.9755 34.3033 14.7411 34.0689C14.5067 33.8345 14.375 33.5165 14.375 33.185V26.935H13.125C12.7935 26.935 12.4755 26.8033 12.2411 26.5689C12.0067 26.3345 11.875 26.0165 11.875 25.685C11.875 25.3535 12.0067 25.0355 12.2411 24.8011C12.4755 24.5667 12.7935 24.435 13.125 24.435H18.125C18.4565 24.435 18.7745 24.5667 19.0089 24.8011C19.2433 25.0355 19.375 25.3535 19.375 25.685ZM30.625 25.685V33.185C30.625 33.5165 30.4933 33.8345 30.2589 34.0689C30.0245 34.3033 29.7065 34.435 29.375 34.435C29.0435 34.435 28.7255 34.3033 28.4911 34.0689C28.2567 33.8345 28.125 33.5165 28.125 33.185V29.435L26.625 31.435C26.5086 31.5902 26.3576 31.7162 26.184 31.803C26.0104 31.8898 25.8191 31.935 25.625 31.935C25.4309 31.935 25.2396 31.8898 25.066 31.803C24.8924 31.7162 24.7414 31.5902 24.625 31.435L23.125 29.435V33.185C23.125 33.5165 22.9933 33.8345 22.7589 34.0689C22.5245 34.3033 22.2065 34.435 21.875 34.435C21.5435 34.435 21.2255 34.3033 20.9911 34.0689C20.7567 33.8345 20.625 33.5165 20.625 33.185V25.685C20.625 25.4226 20.7075 25.1669 20.8609 24.9541C21.0143 24.7413 21.2308 24.5821 21.4797 24.4991C21.7286 24.4162 21.9973 24.4136 22.2477 24.4919C22.4981 24.5701 22.7176 24.7251 22.875 24.935L25.625 28.6022L28.375 24.935C28.5324 24.7251 28.7519 24.5701 29.0023 24.4919C29.2527 24.4136 29.5214 24.4162 29.7703 24.4991C30.0192 24.5821 30.2357 24.7413 30.3891 24.9541C30.5425 25.1669 30.625 25.4226 30.625 25.685ZM39.375 33.185C39.375 33.5165 39.2433 33.8345 39.0089 34.0689C38.7745 34.3033 38.4565 34.435 38.125 34.435H33.75C33.4185 34.435 33.1005 34.3033 32.8661 34.0689C32.6317 33.8345 32.5 33.5165 32.5 33.185V25.685C32.5 25.3535 32.6317 25.0355 32.8661 24.8011C33.1005 24.5667 33.4185 24.435 33.75 24.435C34.0815 24.435 34.3995 24.5667 34.6339 24.8011C34.8683 25.0355 35 25.3535 35 25.685V31.935H38.125C38.4565 31.935 38.7745 32.0667 39.0089 32.3011C39.2433 32.5355 39.375 32.8535 39.375 33.185Z"/>
<path opacity="0.2" d="M20.459 12.1355L14.399 18.1955C14.3639 18.2306 14.3223 18.2585 14.2765 18.2775C14.2306 18.2965 14.1815 18.3063 14.1319 18.3063C14.0823 18.3063 14.0331 18.2965 13.9873 18.2775C13.9415 18.2585 13.8998 18.2306 13.8647 18.1955L10.4855 14.7974C10.4147 14.7266 10.375 14.6306 10.375 14.5305C10.375 14.4304 10.4147 14.3344 10.4855 14.2636L11.6182 13.1309C11.6533 13.0958 11.6949 13.0679 11.7408 13.0489C11.7866 13.0299 11.8357 13.0202 11.8853 13.0202C11.935 13.0202 11.9841 13.0299 12.0299 13.0489C12.0758 13.0679 12.1174 13.0958 12.1525 13.1309L14.1508 15.0697L18.792 10.4874C18.8271 10.4523 18.8687 10.4245 18.9146 10.4055C18.9604 10.3865 19.0095 10.3767 19.0592 10.3767C19.1088 10.3767 19.1579 10.3865 19.2037 10.4055C19.2496 10.4245 19.2912 10.4523 19.3263 10.4874L20.459 11.6013C20.4941 11.6363 20.5219 11.678 20.5409 11.7238C20.5599 11.7697 20.5697 11.8188 20.5697 11.8684C20.5697 11.918 20.5599 11.9672 20.5409 12.013C20.5219 12.0588 20.4941 12.1005 20.459 12.1355Z"/>
<path d="M20.7243 11.3322L19.5916 10.2203C19.45 10.0792 19.2583 10 19.0585 10C18.8586 10 18.6669 10.0792 18.5254 10.2203L14.1508 14.5411L12.4192 12.8609C12.2773 12.7203 12.0856 12.6416 11.8858 12.642C11.6861 12.6425 11.4947 12.722 11.3535 12.8633L10.2208 13.996C10.0794 14.1376 10 14.3295 10 14.5295C10 14.7296 10.0794 14.9215 10.2208 15.0631L13.601 18.4612C13.6711 18.5314 13.7543 18.587 13.846 18.625C13.9376 18.6629 14.0358 18.6824 14.135 18.6824C14.2342 18.6824 14.3324 18.6629 14.424 18.625C14.5156 18.587 14.5989 18.5314 14.669 18.4612L20.7266 12.4022C20.7969 12.3319 20.8526 12.2484 20.8905 12.1565C20.9284 12.0646 20.9478 11.9661 20.9476 11.8667C20.9474 11.7673 20.9276 11.6689 20.8892 11.5772C20.8509 11.4855 20.7948 11.4022 20.7243 11.3322ZM14.1329 17.9284L10.7527 14.5302L11.8854 13.3975C11.8867 13.3987 11.888 13.3999 11.8891 13.4013L13.8879 15.3406C13.9585 15.4096 14.0533 15.4483 14.152 15.4483C14.2507 15.4483 14.3455 15.4096 14.416 15.3406L19.062 10.7546L20.1919 11.8684L14.1329 17.9284Z"/>
</svg>
